<?xml version="1.0" encoding="UTF-8"?> <svg xmlns="http://www.w3.org/2000/svg" width="350" height="350" preserveAspectRatio="xMinYMin meet" style=""><rect id="backgroundrect" width="100%" height="100%" x="0" y="0" fill="none" stroke="none"></rect><g class="currentLayer" style=""><title>Layer 1</title><g class=""><path d="M121.798,11.544813280105592 c-1.653,0.05100000000000005 -3.433,0.6620000000000008 -5.453,2.255 C111.4,11.89281328010559 106.602,11.22981328010559 102.313,15.112813280105591 c-6.623,-0.8590000000000005 -8.775,0.914 -10.406,2.984 c-1.454,-0.030000000000000034 -10.879,-1.495 -15.202,4.953 C65.843,21.764813280105592 62.41,29.43881328010559 66.3,36.59581328010559 c-2.219,3.434 -4.518,6.827 0.6700000000000008,13.375 c-1.835,3.646 -0.6970000000000008,7.602 3.6260000000000003,12.389 c-1.1400000000000001,5.127 1.102,8.743 5.125,11.562 c-0.7530000000000006,7.015 6.433,11.094 8.578,12.547 c0.8240000000000005,4.087 2.541,7.945 10.748,10.077 c1.354,6.092 6.286,7.144 11.063,8.422 c-15.787,9.177 -29.325,21.25 -29.233,50.875 l-2.313,4.125 c-18.102,11.008 -34.388,46.39 -8.92,75.148 c1.6630000000000007,9.002 4.453,15.468 6.937,22.624 c3.715,28.836 27.962,42.339 34.358,43.936 c9.371,7.138 19.352,13.911 32.86,18.656 c12.731,13.131 26.525,18.136 40.394,18.128 c0.20400000000000001,0 28.277,-4.996 41.01,-18.128 c13.506,-4.745 23.487,-11.518 32.86,-18.656 c6.394,-1.597 30.641000000000002,-15.1 34.356,-43.936 c2.484,-7.156 5.274,-13.622 6.938,-22.624 c25.466,-28.761 9.181,-64.144 -8.92,-75.152 l-2.317,-4.125 c0.09200000000000014,-29.622 -13.446,-41.696 -29.233,-50.875 c4.776,-1.278 9.71,-2.33 11.062,-8.422 c8.207,-2.133 9.925,-5.99 10.748,-10.077 c2.146,-1.453 9.331,-5.532 8.58,-12.547 c4.021,-2.819 6.264,-6.436 5.123,-11.562 c4.324,-4.787 5.461,-8.743 3.6260000000000003,-12.39 c5.19,-6.5440000000000005 2.887,-9.937 0.6710000000000008,-13.371 c3.888,-7.157 0.457,-14.832 -10.409,-13.546 c-4.32,-6.448 -13.744,-4.984 -15.202,-4.954 c-1.6300000000000003,-2.069 -3.782,-3.842 -10.405,-2.983 c-4.289,-3.883 -9.085,-3.221 -14.032,-1.3130000000000002 c-5.8740000000000006,-4.635 -9.76,-0.92 -14.2,0.48500000000000026 c-7.112,-2.324 -8.739,0.8590000000000005 -12.233,2.156 c-7.756,-1.6390000000000002 -10.113,1.929 -13.83,5.695 l-4.3260000000000005,-0.0860000000000001 c-11.698,6.894 -17.51,20.932 -19.57,28.149 c-2.06,-7.218 -7.859,-21.256 -19.555,-28.149 l-4.325,0.0860000000000001 c-3.723,-3.766 -6.079,-7.334 -13.835,-5.695 C139.28,15.142813280105592 137.66,11.95981328010559 130.542,14.28381328010559 c-2.914,-0.922 -5.594,-2.838 -8.749,-2.74 L41.5,152.5398132801056 " id="svg_1" class=""></path><path d="M98.50800000000001,41.873813280105594 c31.036,16.001 49.079,28.945 58.964,39.969 c-5.062,20.289 -31.47,21.215 -41.126,20.646 c1.9769999999999999,-0.92 3.6270000000000002,-2.023 4.212,-3.716 c-2.423,-1.722 -11.014,-0.18200000000000013 -17.012,-3.551 c2.3040000000000003,-0.47800000000000026 3.382,-0.9430000000000005 4.459,-2.6430000000000002 c-5.666,-1.807 -11.77,-3.365 -15.36,-6.359 c1.937,0.024000000000000018 3.746,0.4340000000000003 6.276,-1.3210000000000002 c-5.075,-2.7350000000000003 -10.491,-4.9030000000000005 -14.699,-9.084 c2.624,-0.06400000000000007 5.453,-0.026000000000000034 6.276,-0.991 c-4.6450000000000005,-2.878 -8.565,-6.078 -11.809,-9.579 c3.672,0.4430000000000003 5.223,0.06200000000000006 6.111,-0.5780000000000005 c-3.512,-3.597 -7.956,-6.634 -10.075,-11.066 c2.726,0.9400000000000005 5.221,1.3 7.019,-0.08200000000000009 c-1.193,-2.692 -6.305,-4.28 -9.249,-10.571 c2.871,0.279 5.915,0.6260000000000006 6.524,0 c-1.332,-5.428 -3.6180000000000003,-8.48 -5.86,-11.642 c6.143,-0.09100000000000014 15.451,0.024000000000000018 15.03,-0.4950000000000003 L84.39,26.92981328010559 c6.001,-1.616 12.141,0.259 16.599,1.6510000000000002 c2.001,-1.5790000000000002 -0.03600000000000001,-3.576 -2.478,-5.615 c5.1,0.6810000000000008 9.708,1.8530000000000002 13.874,3.468 c2.225,-2.009 -1.445,-4.019 -3.221,-6.028 c7.8790000000000004,1.494 11.217,3.595 14.534,5.698 c2.407,-2.307 0.138,-4.268 -1.486,-6.276 c5.941,2.2 9.001,5.041 12.222,7.845 c1.092,-1.474 2.775,-2.555 0.7430000000000005,-6.111 c4.218,2.431 7.3950000000000005,5.296 9.745000000000001,8.506 c2.6100000000000003,-1.6620000000000008 1.5550000000000002,-3.934 1.569,-6.029 c4.384,3.566 7.166,7.361 10.571,11.066 c0.6860000000000008,-0.5 1.286,-2.193 1.8170000000000002,-4.872 c10.457,10.145 25.234,35.7 3.798,45.832 c-18.243,-15.046 -40.031,-25.983 -64.176,-34.187 l0.00700000000000001,-0.004000000000000004 M263.18600000000004,41.873813280105594 c-31.032,16.003 -49.075,28.943 -58.959,39.969 c5.062,20.289 31.469,21.215 41.125,20.646 c-1.9769999999999999,-0.92 -3.6270000000000002,-2.023 -4.211,-3.716 c2.423,-1.722 11.014,-0.18200000000000013 17.011,-3.551 c-2.3040000000000003,-0.47800000000000026 -3.3810000000000002,-0.9430000000000005 -4.459,-2.6430000000000002 c5.667,-1.807 11.771,-3.365 15.36,-6.359 c-1.937,0.024000000000000018 -3.746,0.4340000000000003 -6.276,-1.3210000000000002 c5.076,-2.7350000000000003 10.492,-4.9030000000000005 14.7,-9.084 c-2.625,-0.06400000000000007 -5.454,-0.026000000000000034 -6.276,-0.991 c4.6450000000000005,-2.878 8.565,-6.078 11.809,-9.579 c-3.673,0.4430000000000003 -5.223,0.06200000000000006 -6.111,-0.5780000000000005 c3.511,-3.597 7.956,-6.634 10.075,-11.066 c-2.7270000000000003,0.9400000000000005 -5.222,1.3 -7.02,-0.08200000000000009 c1.193,-2.692 6.306,-4.28 9.249,-10.571 c-2.87,0.279 -5.915,0.6260000000000006 -6.524,0 c1.335,-5.43 3.621,-8.482 5.863,-11.644 c-6.143,-0.09100000000000014 -15.451,0.024000000000000018 -15.03,-0.4950000000000003 l3.799,-3.882 c-6.001,-1.6150000000000002 -12.141,0.26 -16.599,1.6520000000000001 c-2.001,-1.5790000000000002 0.035,-3.576 2.477,-5.615 c-5.099,0.6800000000000008 -9.708,1.8530000000000002 -13.873,3.468 c-2.226,-2.009 1.445,-4.019 3.221,-6.028 c-7.8790000000000004,1.494 -11.217,3.595 -14.535,5.698 c-2.407,-2.307 -0.137,-4.268 1.487,-6.276 c-5.941,2.2 -9.001,5.041 -12.222,7.845 c-1.093,-1.474 -2.775,-2.555 -0.7440000000000005,-6.111 c-4.217,2.431 -7.394,5.296 -9.744,8.506 c-2.6100000000000003,-1.6620000000000008 -1.5550000000000002,-3.935 -1.569,-6.029 c-4.384,3.566 -7.166,7.36 -10.571,11.066 c-0.6860000000000008,-0.5 -1.286,-2.193 -1.8170000000000002,-4.873 c-10.457,10.146 -25.234,35.701 -3.798,45.833 c18.233,-15.05 40.02,-25.985 64.166,-34.189 h-0.004000000000000004 " fill="#75A928" id="svg_2" class=""></path><path d="M218.433,248.47281328010558 c0.10800000000000007,18.933 -16.449,34.362 -36.98,34.461 c-20.532,0.1 -37.264,-15.167 -37.372,-34.1 a21.72,21.72 0 0 1 0,-0.36100000000000027 c-0.10800000000000007,-18.932 16.448,-34.361 36.98,-34.461 c20.532,-0.1 37.263,15.167 37.372,34.1 v0.36100000000000027 M159.74599999999998,150.54381328010558 c15.404,10.093 18.181,32.969 6.202,51.095 c-11.979,18.127 -34.177,24.641000000000002 -49.581,14.549 c-15.404,-10.093 -18.18,-32.969 -6.202,-51.095 c11.979,-18.127 34.177,-24.641000000000002 49.581,-14.549 M201.322,148.71681328010558 c-15.403,10.092 -18.18,32.969 -6.202,51.095 c11.979,18.127 34.177,24.641000000000002 49.581,14.548 c15.404,-10.092 18.181,-32.968 6.202,-51.095 c-11.978,-18.126 -34.176,-24.64 -49.581,-14.548 M82.758,167.04381328010558 c16.631,-4.458 5.615,68.803 -7.917,62.792 c-14.885,-11.972 -19.679,-47.033 7.917,-62.792 M274.953,166.1308132801056 c-16.633,-4.457 -5.615,68.807 7.917,62.796 c14.885,-11.973 19.679,-47.038 -7.917,-62.796 M218.446,111.5738132801056 c28.701,-4.846 52.583,12.206 51.619,43.328 c-0.9440000000000005,11.932 -62.193,-41.551 -51.619,-43.328 M139.14600000000002,110.66081328010559 c-28.703,-4.847 -52.583,12.209 -51.619,43.329 c0.9440000000000005,11.931000000000001 62.194,-41.552 51.619,-43.329 M180.374,103.40281328010559 c-17.13,-0.44600000000000034 -33.57,12.713000000000001 -33.61,20.346 c-0.047000000000000035,9.274000000000001 13.544,18.77 33.727,19.011 c20.61,0.14700000000000013 33.762,-7.601 33.828,-17.172 c0.07600000000000007,-10.844 -18.745,-22.353 -33.945,-22.186 v0.001000000000000001 M181.42,293.5828132801056 c14.935,-0.6520000000000007 34.975,4.8100000000000005 35.015,12.057 c0.24800000000000014,7.036 -18.175,22.934 -36.005,22.627 c-18.466,0.797 -36.573,-15.126 -36.336,-20.645 c-0.277,-8.092 22.484,-14.41 37.326,-14.039 M126.256,250.6378132801056 c10.633000000000001,12.81 15.481,35.316 6.607,41.951 c-8.395,5.065 -28.782,2.979 -43.272,-17.838 c-9.773,-17.468 -8.514,-35.243 -1.6520000000000001,-40.465 c10.261,-6.25 26.115,2.193 38.318,16.352 h-0.001000000000000001 M234.456,246.5768132801056 c-11.505,13.475 -17.911,38.053 -9.519,45.969 c8.025,6.15 29.567,5.29 45.479,-16.789 c11.554,-14.829 7.683,-39.594 1.083,-46.17 c-9.804,-7.583 -23.879,2.122 -37.043,16.986 v0.004000000000000004 " fill="#BC1142" id="svg_3" class=""></path></g></g></svg> 